<svg xmlns="http://www.w3.org/2000/svg" id="b" data-name="Capa_2" viewBox="0 0 47.46 41.7">
  <defs>
    <style>
      .d {
        fill: none;
      }

      .e {
        fill: #00e1ff;
      }
    </style>
  </defs>
  <g id="c" data-name="Capa_1">
    <g>
      <g>
        <path class="e" d="M45.97,18.66c-.49-.89-1.19-1.61-1.99-2.23-1.06-.83-2.24-1.46-3.48-2-1.07-.47-2.18-.84-3.31-1.18-.05-.02-.1-.03-.15-.05-.01,0-.02-.02-.05-.04.05-.23.11-.46.16-.7.32-1.37.55-2.75.62-4.15.07-1.25.03-2.5-.27-3.73-.2-.79-.49-1.55-.97-2.22-.67-.93-1.55-1.53-2.68-1.77-.86-.17-1.64-.1-2.09-.01-1.18.21-2.26.68-3.3,1.27-1.38.78-2.62,1.75-3.8,2.8-.32.28-.63.58-.95.88-.06-.06-.12-.11-.18-.16-1.04-1-2.14-1.93-3.33-2.74-.95-.65-1.95-1.22-3.03-1.62-.51-.19-1.04-.34-1.58-.43-.48-.1-1.46-.1-1.97.01-1.39.3-2.39,1.1-3.06,2.33-.4.73-.63,1.52-.76,2.34-.19,1.18-.2,2.36-.1,3.54.12,1.4.37,2.78.7,4.14.02.08.03.16.05.25-.11.03-.2.07-.3.09-1.6.47-3.16,1.05-4.64,1.83-1,.53-1.94,1.14-2.76,1.92-.47.45-.89.94-1.22,1.51-.91,1.6-.86,3.19.09,4.75.54.87,1.27,1.56,2.09,2.16,1.07.79,2.25,1.4,3.48,1.91.98.41,1.99.75,3.01,1.05.08.02.15.05.24.07-.01.07-.02.12-.03.17-.23.95-.43,1.9-.57,2.87-.15,1.09-.25,2.18-.21,3.28.04,1.07.18,2.13.55,3.14.3.8.72,1.53,1.36,2.11.58.53,1.26.86,2.02,1.03.43.09,1.63.13,2.21-.01,1.12-.22,2.15-.67,3.14-1.23,1.37-.78,2.62-1.73,3.79-2.78.28-.25.56-.51.83-.77.05-.05.1-.09.16-.15.08.08.15.14.23.21,1.12,1.07,2.31,2.07,3.61,2.92.94.62,1.93,1.15,3,1.51.39.13.8.21,1.2.31.51.15,1.62.1,2.15-.02,1.34-.31,2.3-1.11,2.95-2.3.43-.78.66-1.63.79-2.5.18-1.21.17-2.43.05-3.64-.12-1.33-.37-2.64-.69-3.93-.01-.06-.02-.12-.04-.2.08-.03.15-.05.23-.07,1.16-.34,2.31-.74,3.42-1.23,1.17-.52,2.3-1.12,3.31-1.91.73-.56,1.37-1.21,1.86-1.99.44-.71.71-1.47.74-2.31.03-.83-.18-1.61-.59-2.33ZM25.4,6.68c1.16-1.1,2.38-2.11,3.75-2.93.8-.48,1.64-.89,2.55-1.12.53-.13,1.06-.2,1.61-.12.67.1,1.2.43,1.6.98.29.4.48.86.62,1.34.27.98.33,1.98.3,3-.05,1.59-.32,3.15-.7,4.69-.02.06-.04.13-.06.2-.24-.05-.47-.1-.7-.15-1.36-.28-2.74-.5-4.12-.66-.36-.04-.71-.09-1.07-.11-.15-.01-.23-.07-.31-.19-.9-1.27-1.86-2.5-2.88-3.67-.28-.32-.56-.64-.86-.97.1-.11.19-.2.28-.29ZM14.39,23.2c.81,1.56,1.69,3.07,2.65,4.59-1.41-.17-2.75-.4-4.1-.7.11-.55,1.22-3.56,1.44-3.89ZM14.37,18.53c-.55-1.3-1.02-2.58-1.44-3.9.05-.02.1-.04.15-.05,1.16-.25,2.33-.46,3.51-.61.13-.02.26-.03.39-.05,0,.01.02.03.03.04-.94,1.47-1.81,2.98-2.64,4.57ZM15.51,21.03c-.06-.13-.07-.23,0-.36,1.16-2.37,2.48-4.66,3.96-6.85.08-.12.17-.18.33-.19,1.22-.05,2.43-.11,3.09-.14,1.88,0,3.2.04,4.51.12.06,0,.12.02.18.02.26-.04.38.11.51.3,1.43,2.15,2.72,4.38,3.86,6.7.07.15.08.27,0,.43-1.16,2.36-2.47,4.63-3.94,6.81-.09.13-.19.18-.35.19-1.74.11-3.49.16-5.24.12-.87-.02-1.74-.08-2.62-.12-.17,0-.28-.08-.37-.22-1.46-2.18-2.78-4.46-3.93-6.82ZM33.07,23.21c.21.26,1.38,3.4,1.44,3.88-1.33.3-2.68.53-4.09.7.96-1.51,1.84-3.03,2.65-4.58ZM33.08,18.47s-.01,0-.02-.01c0-.01-.02-.02-.02-.03-.8-1.53-1.66-3.02-2.57-4.49,1.37.15,2.71.37,4.07.68-.41,1.33-.89,2.6-1.42,3.86-.03,0-.04,0-.04,0ZM23.73,8.41c.31.23,2.36,2.68,2.64,3.16-.36.03-.7-.02-1.05-.02-.35,0-.7,0-1.06-.01-.35,0-.69,0-1.04,0-.35,0-.7,0-1.06.01-.35,0-.7.02-1.06.04.1-.29,2.24-2.88,2.62-3.18ZM11.63,6.92c.03-.83.13-1.64.41-2.43.13-.37.3-.71.53-1.02.47-.63,1.11-.95,1.89-.99.79-.04,1.54.18,2.27.47.97.39,1.85.93,2.69,1.53,1,.71,1.93,1.51,2.81,2.36.04.04.07.08.11.13-.04.05-.08.1-.12.14-1.29,1.41-2.49,2.91-3.6,4.47-.1.14-.21.2-.38.21-.92.1-1.84.2-2.76.34-.99.16-1.97.36-2.95.54-.04,0-.08.01-.13.02-.02-.05-.04-.09-.05-.13-.27-1.08-.48-2.16-.61-3.27-.09-.79-.14-1.59-.11-2.39ZM11.07,26.43c-.02.05-.04.1-.06.16-.13-.04-.25-.07-.38-.1-1.43-.42-2.82-.94-4.14-1.64-.84-.44-1.64-.95-2.33-1.61-.37-.35-.69-.72-.93-1.17-.45-.83-.45-1.65,0-2.48.32-.58.77-1.04,1.27-1.46.77-.64,1.63-1.14,2.53-1.57,1.24-.6,2.53-1.06,3.85-1.44.04-.01.08-.02.13-.03.02.06.05.12.06.17.58,1.84,1.29,3.63,2.09,5.39.06.13.06.23,0,.36-.81,1.76-1.51,3.56-2.1,5.41ZM22.28,34.82c-1.17,1.12-2.4,2.17-3.78,3.02-.79.49-1.61.91-2.51,1.17-.56.16-1.13.26-1.72.19-.63-.07-1.16-.34-1.58-.83-.39-.45-.61-.99-.77-1.55-.18-.66-.26-1.33-.29-2-.04-1.19.06-2.37.27-3.53.12-.68.28-1.36.42-2.05.02-.08.04-.16.07-.26.31.06.6.13.89.19,1.24.25,2.49.45,3.74.6.43.05.86.1,1.29.14.13.01.2.07.28.17.9,1.27,1.86,2.5,2.88,3.67.24.28.49.55.73.82.04.05.09.1.14.16-.03.03-.04.06-.06.08ZM23.81,33.24s-.05.04-.09.07c-.93-1.01-1.8-2.06-2.61-3.17,1.75.05,3.49.06,5.22-.02.01.02.02.02.02.03,0,0,0,.01,0,.02-.02.03-.04.07-.06.1-.78,1.03-1.61,2.02-2.48,2.98ZM35.69,36.18c-.1.6-.27,1.17-.57,1.7-.39.7-.96,1.16-1.76,1.3-.52.09-1.04.03-1.55-.09-.95-.22-1.81-.64-2.63-1.14-1.27-.76-2.42-1.69-3.5-2.69-.18-.17-.36-.34-.56-.53.05-.06.08-.09.11-.13,1.3-1.42,2.51-2.93,3.63-4.5.09-.13.19-.19.34-.2.62-.06,1.24-.13,1.85-.21,1.3-.16,2.59-.4,3.87-.68.04,0,.09-.01.15-.02.02.06.04.12.06.18.29,1.18.52,2.38.64,3.59.11,1.14.13,2.28-.07,3.42ZM44.24,22.09c-.32.58-.78,1.06-1.29,1.48-.81.67-1.71,1.18-2.66,1.63-1.2.57-2.44,1-3.71,1.37-.04.01-.08.02-.14.03-.1-.31-.2-.61-.3-.9-.53-1.58-1.15-3.12-1.84-4.64-.07-.15-.07-.27,0-.42.8-1.74,1.5-3.52,2.07-5.35.02-.06.04-.11.07-.18.05,0,.1.01.14.03,1.61.46,3.18,1.04,4.65,1.85.82.45,1.58.97,2.24,1.63.3.3.56.63.76,1,.45.83.45,1.65,0,2.48Z"/>
        <path class="e" d="M23.73,24.91c2.24,0,4.06-1.81,4.07-4.04,0-2.25-1.81-4.08-4.06-4.08-2.25,0-4.07,1.82-4.06,4.07,0,2.24,1.81,4.05,4.05,4.05Z"/>
      </g>
      <rect class="d" width="47.46" height="41.7"/>
    </g>
  </g>
</svg>