<svg xmlns="http://www.w3.org/2000/svg" id="b" data-name="Capa_2" viewBox="0 0 47.46 41.7">
  <defs>
    <style>
      .d {
        fill: #bababa;
      }

      .e {
        fill: none;
      }
    </style>
  </defs>
  <g id="c" data-name="Capa_1">
    <g>
      <path class="d" d="M38.69,1.64H8.77c-2.35,0-4.24,1.9-4.24,4.24v29.93c0,2.34,1.89,4.24,4.24,4.24h29.93c2.34,0,4.24-1.9,4.24-4.24V5.88c0-2.34-1.9-4.24-4.24-4.24ZM11.61,32.21c-.33,0-.67-.12-.93-.38-.51-.51-.51-1.34,0-1.85L32.87,7.81c.51-.52,1.33-.52,1.84,0,.52.51.52,1.33,0,1.84L12.54,31.83c-.25.25-.59.38-.92.38ZM36.77,22.91l-10.98,10.98c-.25.26-.59.39-.93.39s-.67-.12-.92-.39c-.51-.51-.51-1.33,0-1.84l10.98-10.98c.52-.51,1.34-.51,1.85,0,.51.51.51,1.34,0,1.85Z"/>
      <rect class="e" width="47.46" height="41.7"/>
    </g>
  </g>
</svg>